<?xml version="1.0" encoding="UTF-8" standalone="no"?>
<!-- Created with Inkscape (http://www.inkscape.org/) -->

<svg
   xmlns:dc="http://purl.org/dc/elements/1.1/"
   xmlns:cc="http://creativecommons.org/ns#"
   xmlns:rdf="http://www.w3.org/1999/02/22-rdf-syntax-ns#"
   xmlns:svg="http://www.w3.org/2000/svg"
   xmlns="http://www.w3.org/2000/svg"
   xmlns:sodipodi="http://sodipodi.sourceforge.net/DTD/sodipodi-0.dtd"
   xmlns:inkscape="http://www.inkscape.org/namespaces/inkscape"
   version="1.1"
   id="svg77579"
   xml:space="preserve"
   width="800"
   height="800"
   viewBox="0 0 800 800"
   sodipodi:docname="racoon-publicdomainvectors.org.svg"
   inkscape:version="0.92.4 (5da689c313, 2019-01-14)"><metadata
     id="metadata77585"><rdf:RDF><cc:Work
         rdf:about=""><dc:format>image/svg+xml</dc:format><dc:type
           rdf:resource="http://purl.org/dc/dcmitype/StillImage" /><dc:title></dc:title></cc:Work></rdf:RDF></metadata><defs
     id="defs77583"><clipPath
       clipPathUnits="userSpaceOnUse"
       id="clipPath77595"><path
         d="M 0,600 H 600 V 0 H 0 Z"
         id="path77593"
         inkscape:connector-curvature="0" /></clipPath></defs><sodipodi:namedview
     pagecolor="#ffffff"
     bordercolor="#666666"
     borderopacity="1"
     objecttolerance="10"
     gridtolerance="10"
     guidetolerance="10"
     inkscape:pageopacity="0"
     inkscape:pageshadow="2"
     inkscape:window-width="797"
     inkscape:window-height="480"
     id="namedview77581"
     showgrid="false"
     inkscape:zoom="0.295"
     inkscape:cx="400"
     inkscape:cy="400"
     inkscape:window-x="0"
     inkscape:window-y="0"
     inkscape:window-maximized="0"
     inkscape:current-layer="g77587" /><g
     id="g77587"
     inkscape:groupmode="layer"
     inkscape:label="racoon-publicdomainvectors.org"
     transform="matrix(1.3333333,0,0,-1.3333333,0,800)"><g
       id="g77589"><g
         id="g77591"
         clip-path="url(#clipPath77595)"><path
           d="m 297.982,138.297 c 115.377,0 209.479,17.068 209.479,37.992 0,20.928 -94.102,37.994 -209.479,37.994 -115.376,0 -209.478,-17.066 -209.478,-37.994 0,-20.924 94.102,-37.992 209.478,-37.992"
           style="fill:#e6e6e6;fill-opacity:1;fill-rule:evenodd;stroke:none"
           id="path77597"
           inkscape:connector-curvature="0" /><path
           d="m 369.777,197.984 c -0.136,6.481 -0.271,12.961 -0.406,19.442 -9.754,12.48 -16.541,27.388 -23.291,42.328 -1.398,-19.983 1.053,-39.965 4.254,-59.947 6.047,-1.694 12.314,-2.834 19.443,-1.823 m -11.949,-15.189 c 3.986,-4.256 8.432,-7.301 14.58,-5.873 -0.066,1.754 -0.133,3.51 -0.201,5.264 -5.137,-0.829 -9.785,-0.19 -14.379,0.609 m -149.197,4.408 c -2.566,6.379 -9.157,15.731 -9.094,22.604 0.272,30.347 -20.746,51.552 -31.816,79.062 C 109.13,236.086 54.436,208.785 7.726,233.783 c 23.857,62.451 115.135,37.715 130.022,134.073 6.588,187.334 163.397,225.03 252.348,127.996 13.939,-2.355 26.853,-5.861 34.021,-15.798 14.918,0.972 28.705,-0.008 37.672,-9.316 17.369,8.055 34.693,15.97 44.961,1.62 0.75,-32.185 -8.174,-44.648 -21.469,-48.2 3.76,-38.39 -2.947,-65.442 -25.113,-75.745 -17.512,-51.597 -36.029,-101.987 -64.402,-140.552 l 3.644,-24.709 c 9.797,0.266 22.656,3.911 16.61,-13.367 -9.659,-2.849 -24.032,-2.144 -37.469,0.404 1.537,-2.666 2.058,-5.128 1.113,-7.695 -17.457,-3.197 -29.857,-1.695 -46.773,2.131 -4.524,1.113 -6.12,9.211 -5.985,13.666 -3.644,3.105 -7.291,6.211 -10.935,9.316 -9.723,0.272 -16.345,-1.904 -25.834,0.211 -12.438,2.778 -19.996,13.067 -18.722,27.332 1.2,13.465 -4.62,29.215 -11.342,44.963 -3.51,-19.715 -7.021,-39.425 -10.532,-59.138 16.708,-5.127 29.764,-11.743 29.164,-23.899 -32.701,-7.748 -49.635,3.276 -70.074,10.127"
           style="fill:#999966;fill-opacity:1;fill-rule:evenodd;stroke:none"
           id="path77599"
           inkscape:connector-curvature="0" /><path
           d="m 273.611,189.166 c 3.426,-3.33 5.331,-7.273 5.094,-12.09 -23.973,-5.68 -39.475,-1.271 -54.094,4.186 18.756,-1.651 37.334,-2.992 49,7.904"
           style="fill:#36361d;fill-opacity:1;fill-rule:evenodd;stroke:none"
           id="path77601"
           inkscape:connector-curvature="0" /><path
           d="m 357.828,182.795 c 4.594,-0.799 9.242,-1.438 14.379,-0.609 l -0.082,7.681 c -6.342,-0.513 -12.684,0.629 -19.027,2.545 1.578,-3.209 3.154,-6.412 4.73,-9.617 m 41.582,0.357 c 9.797,0.266 22.656,3.911 16.61,-13.367 -9.659,-2.849 -24.032,-2.144 -37.469,0.404 1.537,-2.666 2.058,-5.128 1.113,-7.695 -17.457,-3.197 -29.857,-1.695 -46.773,2.131 -4.524,1.113 -6.12,9.211 -5.985,13.666 14.008,-1.783 28.016,-4.117 42.024,-1.715 1.099,-0.045 2.256,0.061 3.478,0.346 -0.066,1.754 -0.133,3.51 -0.201,5.264 9.588,-1.032 18.967,-1.52 27.203,0.966"
           style="fill:#36361d;fill-opacity:1;fill-rule:evenodd;stroke:none"
           id="path77603"
           inkscape:connector-curvature="0" /><path
           d="m 484.014,381.749 c 1.595,14.533 0.134,28.779 -6.91,42.503 11.998,6.586 25.494,9.717 24.707,45.771 -14.998,10.659 -30.622,-3.119 -46.176,-14.177 -10.321,6.989 -27.418,5.838 -34.227,-2.835 -3.23,8.383 -14.66,13.218 -24.91,12.961 -7.896,18.952 -16.33,36.945 -34.025,38.48 -10.446,-8.809 -8.02,-29.974 -4.86,-51.847 -16.144,-9.175 -25.584,-22.822 -32.004,-38.48 52.799,-10.792 105.602,-21.583 158.405,-32.376"
           style="fill:#adad7d;fill-opacity:1;fill-rule:evenodd;stroke:none"
           id="path77605"
           inkscape:connector-curvature="0" /><path
           d="m 484.014,381.749 c -3.475,-15.959 -11.108,-27.415 -23.846,-33.336 -8.264,-1.184 -16.527,-2.369 -24.791,-3.552 -18.023,-36.406 -42.594,-50.701 -69.264,-57.923 9.104,13.624 18.283,27.158 18.631,50.632 -37.224,15.711 -49.099,45.618 -59.135,76.555 32.205,17.352 63.957,31.225 90.731,7.29 31.728,7.408 53.228,-8.189 67.674,-39.666"
           style="fill:#c4c49d;fill-opacity:1;fill-rule:evenodd;stroke:none"
           id="path77607"
           inkscape:connector-curvature="0" /><path
           d="m 412.727,365.325 c 2.052,8.924 6.134,16.741 14.128,22.424 3.817,-8.137 7.635,-16.273 11.45,-24.409 -4.201,-12.827 -12.828,-19.023 -23.514,-22.128 -0.687,8.038 -1.377,16.076 -2.064,24.113 m -10.985,-1.475 c 1.881,11.825 -1.812,22.196 -12.353,30.784 -8.088,-7.323 -16.174,-14.646 -24.26,-21.969 12.756,-7.319 16.773,-21.795 25.814,-27.291 3.6,6.159 7.2,12.317 10.799,18.476"
           style="fill:#e8e8d3;fill-opacity:1;fill-rule:evenodd;stroke:none"
           id="path77609"
           inkscape:connector-curvature="0" /><path
           d="m 421.318,383.688 c -4.222,10.015 5.772,18.816 15.19,15.999 19.937,-5.964 39.482,-25.655 29.365,-39.696 -10.859,-15.067 -22.852,-12.943 -31.189,0.608 -5.643,9.172 -9.276,13.385 -13.366,23.089 m -53.06,-18.431 c -10.422,-2.351 -22.123,11.302 -20.457,20.657 3.623,20.324 29.326,28.673 50.228,20.253 7.967,-3.209 8.18,-15.691 3.035,-19.443 -10.302,-7.515 -19.621,-18.492 -32.806,-21.467"
           style="fill:#36361d;fill-opacity:1;fill-rule:evenodd;stroke:none"
           id="path77611"
           inkscape:connector-curvature="0" /><path
           d="m 398.842,365.825 c 4.576,2.31 11.629,1.965 15.291,-1.62 12.32,-12.059 7.019,-24.668 -6.988,-24.457 -3.286,0.048 -5.426,0.518 -9.508,1.416 -11.653,2.564 -11.76,18.113 1.205,24.661"
           style="fill:#000000;fill-opacity:1;fill-rule:evenodd;stroke:none"
           id="path77613"
           inkscape:connector-curvature="0" /><path
           d="m 438.496,393.004 c -0.81,0 -1.467,-0.657 -1.467,-1.467 0,-0.812 0.657,-1.469 1.467,-1.469 0.811,0 1.467,0.657 1.467,1.469 0,0.81 -0.656,1.467 -1.467,1.467 m 5.975,0.253 c 1.062,-0.708 2.129,-1.418 3.191,-2.127 -2.834,-9.415 -8.308,-10.637 -15.191,-7.494 7.125,-1.135 12.859,-0.342 12,9.621 m -60.91,12.456 c -1.891,-0.304 -3.782,-0.607 -5.672,-0.912 -1.239,-8.857 2.726,-13.656 12.558,-13.873 -8.894,2.818 -11.494,7.648 -6.886,14.785 m 5.494,-2.886 c 0.769,0 1.392,-0.622 1.392,-1.393 0,-0.768 -0.623,-1.392 -1.392,-1.392 -0.768,0 -1.393,0.624 -1.393,1.392 0,0.771 0.625,1.393 1.393,1.393"
           style="fill:#ffffff;fill-opacity:1;fill-rule:evenodd;stroke:none"
           id="path77615"
           inkscape:connector-curvature="0" /><path
           d="m 208.631,187.203 c -3.033,7.535 -6.063,15.068 -9.094,22.604 12.855,9.129 27.006,11.447 42.025,9.236 3.649,10.414 12.423,23.742 16.626,41.088 -17.499,29.709 -52.045,98.022 -49.03,186.55 16.83,-18.902 34.911,-35.563 68.048,-25.112 -47.768,-91.487 -57.409,-69.624 -17.133,-161.456 -3.51,-19.715 -7.021,-39.425 -10.532,-59.138 -17.711,3.832 -31.299,-0.862 -40.91,-13.772"
           style="fill:#7a7a49;fill-opacity:1;fill-rule:evenodd;stroke:none"
           id="path77617"
           inkscape:connector-curvature="0" /><path
           d="m 465.92,448.528 c 11.377,2.228 16.371,14.683 25.924,13.975 4.76,-14.853 -7.19,-28.894 -16.403,-31.797 -2.031,6.797 -5.328,12.643 -9.521,17.822 m -98.428,7.494 c 2.279,6.594 4.654,12.905 9.113,12.962 1.627,10.92 -2.562,18.518 -8.505,25.113 -4.414,-9.496 -3.754,-22.636 -0.608,-38.075"
           style="fill:#7a7a49;fill-opacity:1;fill-rule:evenodd;stroke:none"
           id="path77619"
           inkscape:connector-curvature="0" /><path
           d="M 167.721,288.869 C 109.13,236.086 54.436,208.785 7.726,233.783 c 23.857,62.451 115.135,37.715 130.022,134.073 8.31,-34.183 18.426,-59.927 29.973,-78.987"
           style="fill:#adad7d;fill-opacity:1;fill-rule:evenodd;stroke:none"
           id="path77621"
           inkscape:connector-curvature="0" /><path
           d="m 32.376,225.414 c -8.437,1.348 -16.66,4.094 -24.65,8.369 2.868,7.508 6.717,13.744 11.285,19.094 12.781,-5.529 17.624,-14.492 13.365,-27.463 m 48.508,5.856 c -5.224,-1.899 -10.392,-3.42 -15.496,-4.543 1.013,19.773 -8.236,33.753 -26.086,42.871 4.695,2.861 9.637,5.455 14.711,7.951 15.921,-4.262 29.486,-27.199 26.871,-46.279 m 42.064,22.113 c 2.969,18.57 -11.649,41.263 -33.592,41.793 -4.37,-2.494 -10.432,-5.697 -14.919,-7.885 l 0.518,-1.391 c 22.445,-2.857 34.355,-15.914 34.091,-41.224 3.767,2.187 10.088,6.209 13.902,8.707 m 33.102,25.271 c -3.19,-2.67 -8.704,-7.222 -11.866,-9.722 -2.022,26.097 -14.965,38.005 -34.813,40.879 3.091,3.04 9.029,9.32 11.508,13.209 17.95,-0.585 38.024,-25.569 35.171,-44.366"
           style="fill:#7a7a49;fill-opacity:1;fill-rule:evenodd;stroke:none"
           id="path77623"
           inkscape:connector-curvature="0" /><path
           d="m 253.772,326.766 c -2.33,21.853 22.613,88.564 59.49,99.731 -3.104,-40.695 22.271,-84.526 58.66,-102.119 -49.061,-39.214 -28.66,-118.146 -16.809,-145.817 -7.967,0.541 -15.933,1.08 -23.898,1.619 -28.106,19.24 -74.194,116.07 -77.443,146.586"
           style="fill:#adad7d;fill-opacity:1;fill-rule:evenodd;stroke:none"
           id="path77625"
           inkscape:connector-curvature="0" /></g></g></g></svg>